<svg width="142" height="32" viewBox="0 0 142 32" fill="none" xmlns="http://www.w3.org/2000/svg">
<path fill-rule="evenodd" clip-rule="evenodd" d="M29.8095 11.7716H24.9568C22.778 11.7716 21.0117 10.0051 21.0117 7.82606V2.7097L29.8363 11.7429L29.8095 11.7716Z" fill="#4338CA"/>
<path fill-rule="evenodd" clip-rule="evenodd" d="M13.2354 2.7097H18.9453V8.62804C18.9453 11.4953 21.2694 13.8196 24.1363 13.8196H29.8463V24.0987C29.8463 26.9659 27.5222 29.2903 24.6554 29.2903H13.2354C10.3685 29.2903 8.04441 26.9659 8.04441 24.0987V22.8528H5.39707C4.62301 22.8528 3.99552 22.2253 3.99552 21.4511C3.99552 20.6769 4.62301 20.0494 5.39707 20.0494H6.74668H8.04441H9.23832C10.0124 20.0494 10.6399 19.4218 10.6399 18.6477C10.6399 17.8735 10.0124 17.246 9.23832 17.246H8.04441H6.74668H4.25506C3.48101 17.246 2.85352 16.6184 2.85352 15.8443C2.85352 15.0701 3.48101 14.4426 4.25506 14.4426H8.04441V7.90122C8.04441 5.03402 10.3685 2.7097 13.2354 2.7097Z" fill="#6366F1"/>
<path d="M3.4236 17.6613H1.24341C0.641372 17.6613 0.15332 18.1494 0.15332 18.7515C0.15332 19.3536 0.641372 19.8417 1.24341 19.8417H3.4236C4.02564 19.8417 4.5137 19.3536 4.5137 18.7515C4.5137 18.1494 4.02564 17.6613 3.4236 17.6613Z" fill="#F993EA"/>
<path d="M14.7807 22.4888C15.0979 22.668 15.4187 22.8303 15.7433 22.9758C16.0716 23.1176 16.4112 23.2389 16.7619 23.3397C17.1126 23.4367 17.4801 23.5113 17.8644 23.5635C18.2524 23.6157 18.6647 23.6419 19.1012 23.6419C19.6273 23.6419 20.075 23.6083 20.4443 23.5411C20.8137 23.4702 21.1141 23.375 21.3454 23.2557C21.5804 23.1325 21.7502 22.987 21.8546 22.8191C21.9628 22.6512 22.0169 22.4683 22.0169 22.2706C22.0169 21.9534 21.8845 21.7034 21.6196 21.5206C21.3547 21.334 20.9462 21.2407 20.394 21.2407C20.1515 21.2407 19.8959 21.2575 19.6273 21.2911C19.3586 21.3209 19.0863 21.3545 18.8102 21.3919C18.5378 21.4292 18.2673 21.4646 17.9987 21.4982C17.7338 21.528 17.4839 21.543 17.2488 21.543C16.857 21.543 16.4802 21.4926 16.1183 21.3919C15.7601 21.2911 15.4411 21.14 15.1613 20.9384C14.8852 20.737 14.6651 20.4851 14.5009 20.1828C14.3368 19.8806 14.2547 19.528 14.2547 19.125C14.2547 18.8862 14.2864 18.6493 14.3498 18.4142C14.417 18.1791 14.5214 17.9552 14.6632 17.7425C14.8087 17.5261 14.9953 17.3265 15.2229 17.1436C15.4504 16.957 15.7247 16.7966 16.0455 16.6623C16.3701 16.5279 16.7432 16.4235 17.1648 16.3488C17.5901 16.2705 18.0733 16.2313 18.6143 16.2313C19.0061 16.2313 19.3997 16.2537 19.7952 16.2985C20.1906 16.3395 20.5749 16.3992 20.948 16.4776C21.3248 16.5559 21.6868 16.6511 22.0337 16.763C22.3808 16.8712 22.7035 16.9925 23.002 17.1268L22.2241 18.5597C21.9778 18.4515 21.7129 18.3526 21.4293 18.2631C21.1458 18.1697 20.8492 18.0895 20.5395 18.0224C20.2298 17.9552 19.909 17.903 19.5769 17.8657C19.2486 17.8246 18.9128 17.8041 18.5696 17.8041C18.0808 17.8041 17.6779 17.8396 17.3607 17.9104C17.0473 17.9813 16.7973 18.0727 16.6108 18.1847C16.4242 18.2929 16.2936 18.416 16.219 18.5541C16.1481 18.6884 16.1127 18.8228 16.1127 18.9571C16.1127 19.2183 16.2302 19.4329 16.4653 19.6008C16.7003 19.7649 17.0585 19.847 17.5398 19.847C17.7338 19.847 17.9558 19.834 18.2058 19.8079C18.4595 19.778 18.7244 19.7463 19.0005 19.7127C19.2803 19.6791 19.5638 19.6493 19.8511 19.6231C20.1421 19.5933 20.4238 19.5784 20.6962 19.5784C21.2111 19.5784 21.6662 19.6362 22.0618 19.7519C22.461 19.8676 22.7949 20.0336 23.0635 20.25C23.3321 20.4627 23.5355 20.7221 23.6735 21.028C23.8116 21.3302 23.8806 21.6698 23.8806 22.0467C23.8806 22.5505 23.7631 23.0001 23.528 23.3956C23.2967 23.7874 22.9646 24.1195 22.5319 24.3919C22.1027 24.6606 21.5841 24.8658 20.976 25.0076C20.3679 25.1456 19.6907 25.2146 18.9445 25.2146C18.452 25.2146 17.9707 25.1829 17.5006 25.1195C17.0305 25.0598 16.5791 24.974 16.1463 24.862C15.7172 24.7464 15.3068 24.6102 14.9151 24.4534C14.527 24.293 14.167 24.1176 13.835 23.9273L14.7807 22.4888Z" fill="#24DFFF"/>
<path d="M38.4312 20.4348C37.4391 20.4348 36.6024 20.2795 35.921 19.9687C35.2395 19.648 34.7235 19.2171 34.3727 18.676C34.022 18.1247 33.8467 17.4933 33.8467 16.7818H36.2366C36.2366 17.0624 36.3118 17.323 36.4621 17.5635C36.6224 17.804 36.8629 17.9995 37.1836 18.1498C37.5042 18.2901 37.9201 18.3602 38.4312 18.3602C38.8921 18.3602 39.2779 18.3001 39.5886 18.1798C39.8992 18.0596 40.1347 17.8942 40.295 17.6837C40.4553 17.4633 40.5355 17.2127 40.5355 16.9321C40.5355 16.5814 40.3852 16.3057 40.0846 16.1053C39.784 15.8948 39.2979 15.7595 38.6266 15.6994L37.7999 15.6243C36.7076 15.534 35.8358 15.1933 35.1844 14.602C34.5331 14.0107 34.2074 13.229 34.2074 12.2569C34.2074 11.5554 34.3727 10.949 34.7034 10.4379C35.0441 9.92681 35.5151 9.53595 36.1164 9.26533C36.7176 8.98473 37.4291 8.84446 38.2508 8.84446C39.1126 8.84446 39.8491 8.99477 40.4604 9.29545C41.0816 9.58609 41.5576 10.002 41.8883 10.5432C42.219 11.0743 42.3843 11.7007 42.3843 12.4222H39.9794C39.9794 12.1517 39.9142 11.9061 39.784 11.6856C39.6537 11.4551 39.4583 11.2697 39.1977 11.1294C38.9472 10.9891 38.6316 10.919 38.2508 10.919C37.89 10.919 37.5844 10.9791 37.3339 11.0993C37.0934 11.2196 36.913 11.385 36.7928 11.5955C36.6725 11.7959 36.6124 12.0164 36.6124 12.2569C36.6124 12.5676 36.7226 12.8382 36.9431 13.0687C37.1635 13.2992 37.5243 13.4345 38.0253 13.4745L38.867 13.5497C39.6687 13.6199 40.3752 13.7952 40.9864 14.0759C41.5977 14.3464 42.0737 14.7223 42.4144 15.2034C42.7651 15.6744 42.9405 16.2506 42.9405 16.9321C42.9405 17.6336 42.7551 18.25 42.3843 18.7811C42.0236 19.3023 41.5075 19.7082 40.8361 19.9988C40.1647 20.2894 39.3631 20.4348 38.4312 20.4348Z" fill="#1F2937"/>
<path d="M44.5771 23.1554V11.9108H46.4861V15.4736L46.2306 15.4586C46.2707 14.6368 46.441 13.9453 46.7417 13.3841C47.0423 12.8128 47.4481 12.3869 47.9592 12.1063C48.4702 11.8156 49.0464 11.6703 49.6877 11.6703C50.2589 11.6703 50.775 11.7755 51.2359 11.986C51.7069 12.1965 52.1078 12.4921 52.4385 12.8729C52.7791 13.2438 53.0347 13.6847 53.205 14.1958C53.3852 14.6969 53.4756 15.2481 53.4756 15.8495V16.1952C53.4756 16.7865 53.3905 17.3427 53.22 17.8639C53.0497 18.375 52.7992 18.821 52.4685 19.2018C52.1479 19.5826 51.752 19.8833 51.2811 20.1038C50.8201 20.3142 50.289 20.4194 49.6877 20.4194C49.0665 20.4194 48.5053 20.2942 48.0043 20.0436C47.5132 19.7831 47.1174 19.3922 46.8168 18.871C46.5162 18.3399 46.3508 17.6684 46.3208 16.8567L46.9821 17.7586V23.1554H44.5771ZM49.0113 18.4051C49.4222 18.4051 49.7779 18.3048 50.0785 18.1044C50.3892 17.904 50.6297 17.6233 50.8001 17.2626C50.9704 16.9018 51.0556 16.4859 51.0556 16.0148C51.0556 15.5438 50.9704 15.1329 50.8001 14.7821C50.6297 14.4314 50.3942 14.1608 50.0936 13.9704C49.793 13.7699 49.4322 13.6697 49.0113 13.6697C48.6506 13.6697 48.3099 13.7549 47.9892 13.9252C47.6686 14.0956 47.408 14.3412 47.2076 14.6619C47.0172 14.9726 46.922 15.3534 46.922 15.8044V16.3606C46.922 16.7915 47.0222 17.1624 47.2226 17.473C47.4331 17.7737 47.6986 18.0042 48.0193 18.1645C48.3399 18.3249 48.6706 18.4051 49.0113 18.4051Z" fill="#1F2937"/>
<path d="M58.9889 20.4347C58.2873 20.4347 57.6661 20.3145 57.1251 20.0739C56.5937 19.8334 56.1478 19.5127 55.787 19.1118C55.4362 18.7009 55.1657 18.2449 54.9756 17.7438C54.7949 17.2327 54.7051 16.7116 54.7051 16.1804V15.8798C54.7051 15.3285 54.7949 14.8024 54.9756 14.3013C55.1657 13.7902 55.4362 13.3342 55.787 12.9333C56.1378 12.5324 56.5736 12.2167 57.095 11.9862C57.6259 11.7457 58.2271 11.6254 58.8985 11.6254C59.7802 11.6254 60.5219 11.8259 61.1231 12.2267C61.7343 12.6176 62.2002 13.1337 62.5209 13.7751C62.8416 14.4065 63.0022 15.098 63.0022 15.8497V16.6614H55.712V15.2935H61.5441L60.7623 15.9248C60.7623 15.4338 60.6925 15.0129 60.552 14.6621C60.4115 14.3113 60.2012 14.0457 59.9207 13.8653C59.6503 13.6749 59.3095 13.5797 58.8985 13.5797C58.478 13.5797 58.122 13.6749 57.8314 13.8653C57.5409 14.0557 57.3206 14.3364 57.17 14.7072C57.02 15.068 56.9444 15.5139 56.9444 16.0451C56.9444 16.5362 57.0147 16.9671 57.1552 17.3379C57.2952 17.6987 57.516 17.9793 57.8166 18.1798C58.1172 18.3802 58.5076 18.4804 58.9889 18.4804C59.43 18.4804 59.7902 18.3952 60.0713 18.2249C60.3518 18.0545 60.542 17.844 60.6424 17.5935H62.8516C62.7317 18.1447 62.4961 18.6358 62.1453 19.0667C61.7945 19.4976 61.3539 19.8334 60.8225 20.0739C60.2916 20.3145 59.6804 20.4347 58.9889 20.4347Z" fill="#1F2937"/>
<path d="M64.6768 20.1491V11.9111H66.5854V15.4438H66.4502C66.4502 14.602 66.5558 13.9004 66.7661 13.3392C66.9864 12.778 67.3171 12.3571 67.7582 12.0765C68.1988 11.7959 68.735 11.6555 69.3663 11.6555H69.4714C70.4334 11.6555 71.165 11.9712 71.6664 12.6026C72.1772 13.224 72.4329 14.171 72.4329 15.4438V20.1491H70.0277V15.3085C70.0277 14.8676 69.8977 14.5068 69.6367 14.2262C69.3763 13.9456 69.0255 13.8052 68.5849 13.8052C68.1338 13.8052 67.7682 13.9506 67.4877 14.2412C67.2167 14.5218 67.0815 14.8926 67.0815 15.3536V20.1491H64.6768Z" fill="#1F2937"/>
<path d="M77.6839 20.4045C76.5111 20.4045 75.5946 20.1639 74.9332 19.6829C74.2718 19.2018 73.921 18.5253 73.8809 17.6534H76.0151C76.0552 17.914 76.2106 18.1495 76.481 18.36C76.7621 18.5604 77.1778 18.6607 77.7288 18.6607C78.1498 18.6607 78.4953 18.5905 78.7658 18.4502C79.0463 18.2999 79.1869 18.0894 79.1869 17.8188C79.1869 17.5783 79.0817 17.3879 78.8715 17.2476C78.6607 17.0973 78.2851 16.992 77.7441 16.9319L77.0975 16.8718C76.1054 16.7715 75.359 16.4959 74.8576 16.0449C74.3669 15.594 74.1212 15.0177 74.1212 14.3161C74.1212 13.7349 74.2665 13.2489 74.5571 12.858C74.8481 12.4671 75.2486 12.1715 75.7599 11.971C76.2808 11.7706 76.872 11.6704 77.5334 11.6704C78.5957 11.6704 79.4526 11.9059 80.1039 12.3769C80.7553 12.8379 81.096 13.5094 81.1256 14.3913H78.9914C78.9512 14.1207 78.8113 13.8952 78.5704 13.7148C78.33 13.5244 77.9745 13.4292 77.5032 13.4292C77.1324 13.4292 76.8371 13.4994 76.6168 13.6397C76.396 13.78 76.2861 13.9704 76.2861 14.211C76.2861 14.4414 76.3812 14.6168 76.5714 14.7371C76.7621 14.8573 77.0727 14.9425 77.5032 14.9926L78.1499 15.0528C79.162 15.163 79.9486 15.4436 80.5097 15.8946C81.0707 16.3456 81.3512 16.9519 81.3512 17.7136C81.3512 18.2648 81.2012 18.7458 80.9006 19.1568C80.6 19.5576 80.1737 19.8683 79.6227 20.0888C79.0717 20.2992 78.4251 20.4045 77.6839 20.4045Z" fill="#1F2937"/>
<path d="M83.3814 20.1491V11.9111H85.7861V20.1491H83.3814ZM82.2842 13.685V11.9111H85.7861V13.685H82.2842ZM84.3133 11.0993C83.8621 11.0993 83.5267 10.984 83.3064 10.7535C83.0956 10.513 82.9905 10.2124 82.9905 9.85156C82.9905 9.48077 83.0956 9.1801 83.3064 8.94958C83.5267 8.70909 83.8621 8.58884 84.3133 8.58884C84.7644 8.58884 85.0951 8.70909 85.3054 8.94958C85.5257 9.1801 85.6361 9.48077 85.6361 9.85156C85.6361 10.2124 85.5257 10.513 85.3054 10.7535C85.0951 10.984 84.7644 11.0993 84.3133 11.0993Z" fill="#1F2937"/>
<path d="M93.1447 20.4196C92.4733 20.4196 91.8822 20.2793 91.3713 19.9987C90.8599 19.7081 90.459 19.2922 90.1684 18.751C89.8779 18.2098 89.7226 17.5484 89.7025 16.7667H89.9883V20.1491H88.0791V9.17504H90.4843V14.7523L89.9133 15.4738C89.9434 14.642 90.0987 13.9455 90.3792 13.3842C90.6698 12.813 91.0654 12.3871 91.5662 12.1065C92.0676 11.8158 92.6386 11.6705 93.28 11.6705C93.841 11.6705 94.3471 11.7757 94.7982 11.9862C95.2589 12.1867 95.6498 12.4773 95.9705 12.8581C96.2911 13.2289 96.5368 13.6699 96.7069 14.181C96.8876 14.6921 96.9779 15.2483 96.9779 15.8497V16.1804C96.9779 16.7817 96.8876 17.3379 96.7069 17.849C96.5368 18.3601 96.2811 18.8111 95.9404 19.202C95.6097 19.5828 95.2092 19.8835 94.738 20.1039C94.2673 20.3144 93.7359 20.4196 93.1447 20.4196ZM92.5134 18.4052C92.9244 18.4052 93.28 18.305 93.5806 18.1046C93.8912 17.9042 94.1315 17.6235 94.3022 17.2628C94.4723 16.8919 94.5579 16.476 94.5579 16.015C94.5579 15.544 94.4723 15.1331 94.3022 14.7823C94.1315 14.4316 93.8912 14.161 93.5806 13.9705C93.28 13.7701 92.9244 13.6699 92.5134 13.6699C92.1526 13.6699 91.8119 13.7551 91.4912 13.9254C91.1706 14.0958 90.9101 14.3414 90.7099 14.6621C90.5192 14.9727 90.4241 15.3536 90.4241 15.8046V16.3608C90.4241 16.7917 90.5245 17.1625 90.7247 17.4732C90.935 17.7739 91.2007 18.0043 91.5213 18.1647C91.842 18.3251 92.1727 18.4052 92.5134 18.4052Z" fill="#1F2937"/>
<path d="M98.8289 20.1491V9.17504H101.249V20.1491H98.8289ZM97.8516 10.9489V9.17504H101.249V10.9489H97.8516Z" fill="#1F2937"/>
<path d="M103.45 23.4112V21.3667H105.164C105.425 21.3667 105.645 21.3316 105.826 21.2615C106.006 21.2014 106.151 21.0961 106.261 20.9458C106.372 20.7955 106.462 20.59 106.532 20.3294L108.561 11.911H110.846L108.546 20.8105C108.386 21.4519 108.161 21.963 107.87 22.3438C107.589 22.7247 107.209 22.9953 106.727 23.1556C106.257 23.326 105.655 23.4112 104.924 23.4112H103.45ZM106.036 19.9686V18.0896H107.78V19.9686H106.036ZM105.044 19.9686L102.519 11.911H104.939L107.329 19.9686H105.044Z" fill="#1F2937"/>
<rect x="114.847" y="9" width="27" height="14" rx="2" fill="#1F2937"/>
<path d="M119.058 13.2891H120.835C121.595 13.2891 122.171 13.3958 122.562 13.6094C122.952 13.8229 123.147 14.1979 123.147 14.7344C123.147 14.9505 123.112 15.1458 123.042 15.3203C122.974 15.4948 122.875 15.638 122.745 15.75C122.615 15.862 122.456 15.9349 122.269 15.9688V16.0078C122.459 16.0469 122.631 16.1146 122.784 16.2109C122.938 16.3047 123.06 16.4427 123.151 16.625C123.245 16.8047 123.292 17.0443 123.292 17.3438C123.292 17.6901 123.207 17.987 123.038 18.2344C122.869 18.4818 122.627 18.6719 122.312 18.8047C121.999 18.9349 121.627 19 121.194 19H119.058V13.2891ZM120.269 15.5508H120.972C121.323 15.5508 121.567 15.4961 121.702 15.3867C121.838 15.2747 121.905 15.1107 121.905 14.8945C121.905 14.6758 121.825 14.5195 121.663 14.4258C121.504 14.3294 121.252 14.2812 120.905 14.2812H120.269V15.5508ZM120.269 16.5117V18H121.058C121.422 18 121.676 17.9297 121.819 17.7891C121.963 17.6484 122.034 17.4596 122.034 17.2227C122.034 17.082 122.003 16.9583 121.94 16.8516C121.878 16.7448 121.772 16.6615 121.624 16.6016C121.478 16.5417 121.276 16.5117 121.019 16.5117H120.269ZM127.722 19H124.433V13.2891H127.722V14.2812H125.644V15.5352H127.577V16.5273H125.644V18H127.722V19ZM131.12 19H129.909V14.2969H128.358V13.2891H132.671V14.2969H131.12V19ZM137.046 19L136.632 17.6406H134.55L134.136 19H132.831L134.847 13.2656H136.327L138.351 19H137.046ZM136.343 16.625L135.929 15.2969C135.903 15.2083 135.868 15.0951 135.823 14.957C135.782 14.8164 135.739 14.6745 135.694 14.5312C135.653 14.3854 135.619 14.2591 135.593 14.1523C135.567 14.2591 135.53 14.3919 135.483 14.5508C135.439 14.707 135.396 14.8555 135.354 14.9961C135.313 15.1367 135.283 15.237 135.265 15.2969L134.854 16.625H136.343Z" fill="white"/>
</svg>
